<?xml version="1.0" standalone="no"?>
<!DOCTYPE svg PUBLIC "-//W3C//DTD SVG 20010904//EN"
  "http://www.w3.org/Graphics/SVG/1.1/DTD/svg11.dtd">
<svg version="1.0" xmlns="http://www.w3.org/2000/svg"
     width="320.000000pt" height="320.000000pt" viewBox="0 0 320.000000 320.000000"
     preserveAspectRatio="xMidYMid meet">

  <g transform="translate(0.000000,320.000000) scale(0.100000,-0.100000)" fill="#000000" stroke="none">
    <path d="M1172 2918 c-18 -6 -45 -23 -60 -37 -15 -14 -31 -26 -36 -26 -12 0
-67 -105 -61 -115 3 -5 1 -11 -5 -15 -5 -3 -10 -25 -9 -48 1 -42 1 -42 13 -15
9 22 15 25 24 16 28 -28 14 -64 -47 -114 -33 -27 -65 -59 -72 -71 -8 -15 -22
-23 -38 -23 -32 -1 -111 -70 -111 -98 0 -27 21 -42 50 -35 l24 6 -26 -28 c-15
-15 -24 -34 -21 -41 6 -16 23 -19 23 -5 0 22 34 41 70 41 29 0 38 -4 34 -14
-6 -15 75 -33 85 -18 3 5 15 12 27 16 11 3 31 20 43 37 22 29 22 31 5 50 -11
12 -30 19 -56 19 -40 0 -98 23 -98 40 0 16 66 76 99 90 17 7 36 21 42 31 5 11
18 19 29 19 10 0 22 5 25 10 3 6 14 10 23 10 10 0 25 9 35 20 13 15 29 20 70
20 40 0 69 8 113 30 32 17 72 34 88 38 24 7 29 13 32 49 3 30 -1 47 -16 65
-17 20 -21 21 -31 8 -9 -13 -11 -13 -16 -1 -8 20 -52 60 -83 76 -36 18 -129
25 -168 13z"/>
    <path d="M2360 2715 c-7 -8 -25 -15 -41 -15 -16 0 -29 -4 -29 -8 0 -4 -13 -13
-29 -19 -17 -6 -44 -31 -62 -56 l-32 -46 -31 23 c-69 52 -189 97 -208 78 -9
-9 -6 -12 13 -12 13 -1 49 -14 79 -30 30 -17 61 -30 68 -30 6 0 12 -3 12 -7 0
-5 13 -15 29 -24 l28 -16 -12 -61 c-17 -81 -4 -155 33 -187 17 -15 31 -20 37
-14 5 5 15 9 22 9 16 0 67 -35 97 -66 17 -17 29 -21 64 -17 23 3 42 9 42 14 0
5 -4 9 -10 9 -5 0 -10 5 -10 11 0 6 10 9 23 7 12 -2 49 5 81 17 52 17 66 28
110 85 58 74 62 110 26 186 -54 110 -255 223 -300 169z"/>
    <path d="M1600 2710 c0 -5 6 -10 14 -10 8 0 18 5 21 10 3 6 -3 10 -14 10 -12
0 -21 -4 -21 -10z"/>
    <path d="M1728 2703 c6 -2 18 -2 25 0 6 3 1 5 -13 5 -14 0 -19 -2 -12 -5z"/>
    <path d="M1858 2683 c7 -3 16 -2 19 1 4 3 -2 6 -13 5 -11 0 -14 -3 -6 -6z"/>
    <path d="M1262 2368 c-24 -39 -40 -128 -24 -128 6 0 14 17 18 38 4 20 15 54
25 74 22 42 23 48 10 48 -5 0 -18 -15 -29 -32z"/>
    <path d="M1725 2388 c-22 -5 -85 -21 -140 -35 -55 -14 -120 -25 -144 -24 -140
4 -172 -83 -51 -142 l57 -27 69 16 c38 8 97 27 130 40 43 17 78 24 115 22 30
-1 68 4 85 12 28 12 34 12 49 -3 9 -10 25 -21 35 -27 27 -15 33 24 13 90 -25
83 -35 90 -112 89 -36 -1 -84 -5 -106 -11z m115 -28 c0 -5 -4 -10 -10 -10 -5
0 -10 5 -10 10 0 6 5 10 10 10 6 0 10 -4 10 -10z m50 -10 c0 -5 -4 -10 -10
-10 -5 0 -10 5 -10 10 0 6 5 10 10 10 6 0 10 -4 10 -10z m-30 -57 c0 -14 -13
-16 -47 -7 -36 10 -27 25 12 22 21 -1 35 -7 35 -15z m-123 -19 c-3 -3 -12 -4
-19 -1 -8 3 -5 6 6 6 11 1 17 -2 13 -5z"/>
    <path d="M758 2263 c-2 -17 -8 -27 -16 -25 -10 2 -12 -5 -7 -29 6 -27 5 -31
-9 -26 -11 5 -21 -6 -36 -40 -11 -25 -20 -53 -20 -62 0 -9 -7 -25 -15 -35 -8
-11 -15 -30 -15 -42 0 -12 -7 -27 -15 -34 -8 -6 -17 -22 -21 -33 -4 -12 -14
-33 -24 -47 -9 -14 -25 -47 -35 -75 -23 -63 -69 -140 -108 -181 -21 -23 -27
-38 -22 -53 7 -23 25 -29 25 -8 0 7 8 20 18 29 9 9 22 23 27 30 76 99 72 96
119 91 38 -5 54 0 120 38 41 23 104 70 140 103 57 54 65 66 72 109 4 31 2 63
-6 88 -10 30 -10 42 -1 53 9 11 9 16 -1 23 -34 22 -56 34 -96 53 -25 11 -40
24 -37 31 4 5 -1 19 -10 29 -9 10 -14 24 -10 29 3 6 2 11 -4 11 -5 0 -11 -12
-13 -27z"/>
    <path d="M2440 2099 c0 -11 5 -17 10 -14 6 3 10 13 10 21 0 8 -4 14 -10 14 -5
0 -10 -9 -10 -21z"/>
    <path d="M1610 2070 c0 -5 5 -10 10 -10 6 0 10 5 10 10 0 6 -4 10 -10 10 -5 0
-10 -4 -10 -10z"/>
    <path d="M2460 2050 c0 -5 5 -10 10 -10 6 0 10 5 10 10 0 6 -4 10 -10 10 -5 0
-10 -4 -10 -10z"/>
    <path d="M1508 2030 c-88 -47 -111 -170 -53 -284 33 -65 65 -98 100 -102 14
-1 23 2 20 7 -4 5 -2 9 4 9 13 0 17 -8 25 -47 6 -25 4 -32 -10 -35 -28 -5 52
-53 114 -68 44 -10 56 -10 70 1 9 8 39 25 65 39 27 14 52 32 57 40 11 21 -3
134 -25 202 -31 92 -97 182 -140 190 -11 2 -26 16 -33 31 -10 20 -20 27 -41
27 -16 0 -48 2 -72 5 -32 4 -54 0 -81 -15z m36 -326 c9 -3 16 -12 16 -20 0
-17 -12 -18 -28 -2 -22 22 -16 33 12 22z"/>
    <path d="M2475 1983 c3 -12 6 -50 7 -85 1 -78 16 -139 29 -115 6 9 5 26 -1 42
-5 14 -10 50 -10 78 -1 29 -7 63 -16 77 -13 22 -14 22 -9 3z"/>
    <path d="M2494 1728 c3 -13 6 -41 7 -63 l1 -40 9 50 c9 54 6 75 -12 75 -7 0
-9 -9 -5 -22z"/>
    <path d="M2493 1600 c-12 -28 -6 -47 9 -32 5 5 8 20 6 33 l-5 24 -10 -25z"/>
    <path d="M881 1550 c-22 -58 -22 -70 0 -109 19 -35 21 -49 16 -120 -3 -46 -1
-81 4 -81 5 0 9 13 9 29 0 16 6 34 14 40 7 6 16 24 19 39 3 15 31 54 61 87 31
33 56 69 56 80 0 28 -55 56 -118 59 -47 2 -52 0 -61 -24z"/>
    <path d="M391 1534 c0 -11 3 -14 6 -6 3 7 2 16 -1 19 -3 4 -6 -2 -5 -13z"/>
    <path d="M450 1540 c0 -5 7 -10 16 -10 8 0 12 5 9 10 -3 6 -10 10 -16 10 -5 0
-9 -4 -9 -10z"/>
    <path d="M505 1540 c-3 -5 -1 -10 4 -10 6 0 11 5 11 10 0 6 -2 10 -4 10 -3 0
-8 -4 -11 -10z"/>
    <path d="M2492 1490 c0 -14 2 -19 5 -12 2 6 2 18 0 25 -3 6 -5 1 -5 -13z"/>
    <path d="M2490 1430 c-1 -3 -3 -18 -5 -35 -3 -24 -2 -27 6 -12 6 10 8 25 6 35
-3 9 -6 15 -7 12z"/>
    <path d="M320 1365 c0 -15 4 -24 10 -20 6 3 10 12 10 20 0 8 -4 17 -10 20 -6
4 -10 -5 -10 -20z"/>
    <path d="M2443 1232 c-23 -15 -46 -126 -46 -222 1 -75 6 -110 25 -165 14 -38
30 -71 37 -73 16 -5 14 31 -4 54 -17 23 -20 137 -4 204 12 54 20 198 10 204
-4 3 -12 2 -18 -2z"/>
    <path d="M853 1098 c-11 -13 -23 -30 -27 -38 -4 -8 3 -3 16 13 13 15 29 27 36
27 7 0 12 5 12 10 0 17 -15 11 -37 -12z"/>
    <path d="M490 912 c8 -12 28 -39 44 -62 36 -50 45 -124 20 -171 -24 -47 -43
-130 -37 -162 3 -16 1 -38 -5 -50 -6 -12 -13 -31 -16 -41 -6 -16 -4 -17 9 -6
8 7 15 21 15 31 0 10 11 30 23 45 l24 27 47 -32 c29 -20 55 -31 67 -28 10 3
21 2 24 -3 8 -12 -53 -20 -80 -10 -22 8 -25 7 -25 -14 0 -32 37 -38 84 -15 21
10 49 19 64 21 19 2 26 8 24 21 -2 10 3 17 13 17 8 0 15 -6 15 -13 0 -8 10
-23 23 -35 22 -21 25 -21 81 -7 32 8 68 22 79 30 29 20 47 19 47 -2 0 -27 57
-54 123 -61 32 -2 60 -9 63 -13 9 -16 39 -9 77 16 30 21 37 32 37 58 0 18 7
45 15 61 19 36 19 62 0 78 -9 7 -30 27 -48 45 l-32 31 -85 -18 c-80 -17 -114
-30 -183 -67 -26 -13 -30 -13 -46 1 -11 10 -36 16 -72 16 -49 0 -58 4 -94 38
-50 49 -75 62 -116 62 -21 0 -40 -8 -56 -26 -35 -38 -43 -23 -14 26 5 8 14 32
20 52 14 44 4 70 -35 90 -19 10 -59 60 -59 74 0 1 -11 5 -25 9 -23 7 -23 7
-10 -13z m270 -433 c0 -12 -5 -19 -11 -17 -6 2 -10 7 -10 11 1 4 1 14 1 23 0
8 5 12 10 9 6 -3 10 -15 10 -26z m440 -9 c0 -5 -2 -10 -4 -10 -3 0 -8 5 -11
10 -3 6 -1 10 4 10 6 0 11 -4 11 -10z"/>
    <path d="M766 842 c-6 -10 62 -61 108 -81 46 -19 118 -30 164 -24 23 3 42 9
42 13 0 4 -33 12 -72 19 -86 15 -157 37 -178 56 -21 18 -57 28 -64 17z"/>
    <path d="M2470 736 c0 -9 5 -16 10 -16 6 0 10 4 10 9 0 6 -4 13 -10 16 -5 3
-10 -1 -10 -9z"/>
    <path d="M2490 672 c0 -6 6 -26 14 -44 8 -18 20 -53 26 -78 7 -25 19 -63 27
-85 13 -39 14 -40 8 -5 -3 19 -9 53 -12 75 -3 22 -12 49 -19 60 -8 11 -14 29
-14 41 0 12 -7 27 -15 34 -10 8 -15 9 -15 2z"/>
  </g>
</svg>
